<?xml version="1.0" encoding="UTF-8"?>
<!DOCTYPE svg PUBLIC "-//W3C//DTD SVG 1.1//EN" "http://www.w3.org/Graphics/SVG/1.1/DTD/svg11.dtd">
<!-- Creator: CorelDRAW 2021 (64-Bit) -->
<svg xmlns="http://www.w3.org/2000/svg" xml:space="preserve" width="1.70666in" height="1.70666in" version="1.1" style="shape-rendering:geometricPrecision; text-rendering:geometricPrecision; image-rendering:optimizeQuality; fill-rule:evenodd; clip-rule:evenodd"
viewBox="0 0 1706.66 1706.66"
 xmlns:xlink="http://www.w3.org/1999/xlink"
 xmlns:xodm="http://www.corel.com/coreldraw/odm/2003">
 <defs>
  <style type="text/css">
   <![CDATA[
    .fil0 {fill:none}
    .fil1 {fill:#2966F4}
   ]]>
  </style>
 </defs>
 <g id="Layer_x0020_1">
  <metadata id="CorelCorpID_0Corel-Layer"/>
  <rect class="fil0" x="0.06" y="-0.04" width="1706.67" height="1706.67"/>
  <path class="fil1" d="M1481.06 1351.84c23.73,-23.73 23.73,-62.44 0,-86.17l-369.26 -369.26c-23.73,-23.73 -23.73,-62.44 0,-86.17l369.26 -369.26c23.73,-23.73 23.73,-62.44 0,-86.17l-135.4 -135.39c-23.73,-23.73 -62.44,-23.73 -86.16,0l-590.83 590.82c-23.72,23.73 -23.73,62.44 0,86.17l337.78 337.77c15.26,15.25 19.58,36.98 11.32,56.91 -8.26,19.93 -26.67,32.24 -48.24,32.24l-370.05 0c-33.56,0 -60.92,-27.37 -60.92,-60.93l0 -1131.48c0,-33.56 -27.37,-60.93 -60.93,-60.93l-208.89 0c-33.55,0 -60.93,27.37 -60.93,60.93l0 1444.82c0,33.55 27.37,60.92 60.93,60.92l902.27 0c16.78,0 31.22,-5.98 43.08,-17.84l266.98 -266.98z"/>
 </g>
</svg>
